# xmcd CD database file
#
# Track frame offsets:
#	150
#	19538
#	35912
#	49942
#	75181
#	89376
#	105907
#	133650
#	155545
#	174176
#	188323
#	209705
#
# Disc length: 3030 seconds
#
# Revision: 0
# Processed by: cddbd v1.5.2PL0 Copyright (c) Steve Scherf et al.
# Submitted via: CDex 2.00
#
DISCID=8c0bd40c
DTITLE=Mike Gibbs,NDR Bigband,Norma Winstone - Here's a song for you
DYEAR=2011
DGENRE=Jazz
TTITLE0=Blue
TTITLE1=So In Love
TTITLE2=Soldier's Things
TTITLE3=Riverman
TTITLE4=I think it's going to rain today
TTITLE5=Jitterbug Waltz
TTITLE6=A Thousand Years
TTITLE7=Caravan
TTITLE8=Daydream
TTITLE9=Here Comes the Honeyman
TTITLE10=Some Shadows
TTITLE11=You go to my Head
EXTD=YEAR: 2011
EXTT0=
EXTT1=
EXTT2=
EXTT3=
EXTT4=
EXTT5=
EXTT6=
EXTT7=
EXTT8=
EXTT9=
EXTT10=
EXTT11=
PLAYORDER=
